<?xml version="1.0" encoding="UTF-8" standalone="no"?>
<!-- Created with Inkscape (http://www.inkscape.org/) -->

<svg
   width="1064"
   height="144"
   viewBox="0 0 281.51666 38.1"
   version="1.1"
   id="svg919"
   inkscape:version="1.2.2 (732a01da63, 2022-12-09)"
   sodipodi:docname="main_logo_copy.svg"
   inkscape:export-filename="main_logo.png"
   inkscape:export-xdpi="20.300753"
   inkscape:export-ydpi="20.300753"
   xmlns:inkscape="http://www.inkscape.org/namespaces/inkscape"
   xmlns:sodipodi="http://sodipodi.sourceforge.net/DTD/sodipodi-0.dtd"
   xmlns="http://www.w3.org/2000/svg"
   xmlns:svg="http://www.w3.org/2000/svg">
  <sodipodi:namedview
     id="namedview921"
     pagecolor="#ffffff"
     bordercolor="#000000"
     borderopacity="1"
     inkscape:pageshadow="2"
     inkscape:pageopacity="0"
     inkscape:pagecheckerboard="true"
     inkscape:document-units="mm"
     showgrid="false"
     fit-margin-top="0"
     fit-margin-left="0"
     fit-margin-right="0"
     fit-margin-bottom="0"
     inkscape:zoom="0.66368547"
     inkscape:cx="437.70733"
     inkscape:cy="247.105"
     inkscape:window-width="1798"
     inkscape:window-height="1065"
     inkscape:window-x="1423"
     inkscape:window-y="198"
     inkscape:window-maximized="0"
     inkscape:current-layer="g18908"
     showborder="true"
     inkscape:showpageshadow="false"
     inkscape:deskcolor="#ffffff"
     showguides="true" />
  <defs
     id="defs916" />
  <g
     inkscape:label="Layer 1"
     inkscape:groupmode="layer"
     id="layer1"
     transform="translate(-6.5027381,-43.525382)">
    <g
       id="g18908"
       transform="matrix(1.3004046,0,0,1.3004046,-2.9436654,-16.22391)">
      <g
         id="g9636"
         transform="matrix(1.3515014,0,0,1.3515014,-121.07189,-135.56794)">
        <path
           id="path103428-3"
           style="color:#000000;fill:#fbc02d;stroke-width:1.43612;stroke-linecap:round;stroke-linejoin:round"
           d="m 103.86803,149.26003 c -1.09082,0.62976 -2.18258,1.25796 -3.2734,1.88772 1.09082,0.62975 2.18258,1.25796 3.2734,1.88772 1.09003,-0.62935 2.18043,-1.25837 3.27053,-1.88772 -1.0901,-0.62936 -2.1805,-1.25837 -3.27053,-1.88772 z" />
        <path
           id="path103430-4"
           style="color:#000000;fill:#fbc02d;stroke-width:1.43612;stroke-linecap:round;stroke-linejoin:round"
           d="m 103.37722,144.62627 -3.27339,1.89053 v 3.77825 c 1.09123,-0.63 2.18216,-1.26054 3.27339,-1.89053 z" />
        <path
           id="path103432-3"
           style="color:#000000;fill:#64b5f6;stroke-width:1.43612;stroke-linecap:round;stroke-linejoin:round"
           d="m 107.63228,137.2549 c -1.09117,0.63 -2.18216,1.26053 -3.27333,1.89053 v 3.78105 c 1.09117,-0.63 2.18216,-1.26053 3.27333,-1.89053 z" />
        <path
           id="path103434-6"
           style="color:#000000;fill:#64b5f6;stroke-width:1.43612;stroke-linecap:round;stroke-linejoin:round"
           d="m 108.61401,137.2577 v 3.77825 l 3.27339,1.89333 v -3.78105 z" />
        <path
           id="path103436-9"
           style="color:#000000;fill:#546e7a;stroke-width:1.43612;stroke-linecap:round;stroke-linejoin:round"
           d="m 104.35853,144.62998 v 3.77825 c 1.09022,0.62945 2.18312,1.25827 3.27334,1.88773 v -3.77825 z" />
        <path
           id="path103438-3"
           style="color:#000000;fill:#546e7a;stroke-width:1.43612;stroke-linecap:round;stroke-linejoin:round"
           d="m 108.12279,141.88956 c -1.0901,0.62935 -2.18049,1.25836 -3.27059,1.88772 1.0901,0.62936 2.18049,1.25838 3.27059,1.88773 1.09004,-0.62935 2.18043,-1.25837 3.27053,-1.88773 -1.0901,-0.62936 -2.18049,-1.25837 -3.27053,-1.88772 z" />
        <path
           id="path103440-1"
           style="color:#000000;fill:#546e7a;stroke-width:1.43612;stroke-linecap:round;stroke-linejoin:round"
           d="m 111.88698,144.62998 -3.27339,1.88773 v 3.77825 c 1.09123,-0.63 2.18222,-1.26053 3.27339,-1.89053 z" />
        <path
           id="path103442-7"
           style="color:#000000;fill:#e57373;stroke-width:1.43612;stroke-linecap:round;stroke-linejoin:round"
           d="m 112.37821,149.26003 c -1.09082,0.62976 -2.18259,1.25796 -3.2734,1.88772 1.09081,0.62975 2.18258,1.25796 3.2734,1.88772 l 3.27053,-1.88772 c -1.0901,-0.62936 -2.1805,-1.25837 -3.27053,-1.88772 z" />
        <path
           id="path103444-9"
           style="color:#000000;fill:#e57373;stroke-width:1.43612;stroke-linecap:round;stroke-linejoin:round"
           d="m 112.86913,144.62908 v 3.77825 c 1.09117,0.62999 2.18216,1.26053 3.27333,1.89052 v -3.78105 z" />
        <path
           d="m 119.33176,150.63324 v -11.49318 h 1.82328 l 4.52564,7.04893 h -0.92792 l 4.50936,-7.04893 h 1.83956 v 11.49318 h -2.55584 v -7.17917 l 0.45582,0.11396 -2.94655,4.59076 h -1.69305 l -2.93027,-4.59076 0.43954,-0.11396 v 7.17917 z"
           id="path1411"
           style="font-weight:bold;font-size:27.2945px;font-family:Outfit;-inkscape-font-specification:'Outfit Bold';fill:#455a64;stroke-width:1.0083;stroke-linecap:round;stroke-linejoin:round" />
        <path
           d="m 133.07148,150.63324 v -7.91174 h 2.49073 v 7.91174 z m 1.2535,-9.00245 q -0.58605,0 -0.97675,-0.3907 -0.37443,-0.40699 -0.37443,-0.97676 0,-0.58605 0.37443,-0.97676 0.3907,-0.3907 0.97675,-0.3907 0.58606,0 0.96048,0.3907 0.37443,0.39071 0.37443,0.97676 0,0.56977 -0.37443,0.97676 -0.37442,0.3907 -0.96048,0.3907 z"
           id="path1408"
           style="font-weight:bold;font-size:27.2945px;font-family:Outfit;-inkscape-font-specification:'Outfit Bold';fill:#455a64;stroke-width:1.0083;stroke-linecap:round;stroke-linejoin:round" />
        <path
           d="m 141.146,150.81231 q -1.22095,0 -2.21399,-0.53721 -0.99303,-0.53722 -1.56281,-1.48142 -0.56977,-0.9442 -0.56977,-2.11631 0,-1.18839 0.56977,-2.1163 0.58606,-0.94421 1.5791,-1.48142 0.99303,-0.53722 2.23026,-0.53722 0.92792,0 1.69304,0.32559 0.78141,0.3093 1.38374,0.9442 l -1.59537,1.59537 q -0.27674,-0.30931 -0.65117,-0.45583 -0.35815,-0.14651 -0.83024,-0.14651 -0.53722,0 -0.96048,0.24419 -0.40698,0.22791 -0.65117,0.65117 -0.22791,0.40698 -0.22791,0.96048 0,0.5535 0.22791,0.97676 0.24419,0.42326 0.66745,0.66745 0.42326,0.24419 0.9442,0.24419 0.48838,0 0.8628,-0.1628 0.3907,-0.17907 0.66745,-0.48837 l 1.57909,1.59537 q -0.61861,0.65117 -1.40001,0.99303 -0.78141,0.32559 -1.74189,0.32559 z"
           id="path1405"
           style="font-weight:bold;font-size:27.2945px;font-family:Outfit;-inkscape-font-specification:'Outfit Bold';fill:#455a64;stroke-width:1.0083;stroke-linecap:round;stroke-linejoin:round" />
        <path
           d="m 145.39487,150.63324 v -7.91174 h 2.49073 v 7.91174 z m 2.49073,-4.34657 -1.04188,-0.81397 q 0.30931,-1.38373 1.04188,-2.14887 0.73256,-0.76512 2.03491,-0.76512 0.56977,0 0.99304,0.17907 0.43954,0.1628 0.76512,0.52094 l -1.48141,1.87212 q -0.16279,-0.17908 -0.40698,-0.27675 -0.24419,-0.0977 -0.5535,-0.0977 -0.61862,0 -0.99304,0.39071 -0.35814,0.37442 -0.35814,1.13955 z"
           id="path1402"
           style="font-weight:bold;font-size:27.2945px;font-family:Outfit;-inkscape-font-specification:'Outfit Bold';fill:#455a64;stroke-width:1.0083;stroke-linecap:round;stroke-linejoin:round" />
        <path
           d="m 155.92751,150.81231 q -1.22095,0 -2.21399,-0.53721 -0.97675,-0.5535 -1.54652,-1.4977 -0.56978,-0.9442 -0.56978,-2.11631 0,-1.17211 0.56978,-2.10002 0.56977,-0.92793 1.54652,-1.46514 0.97676,-0.5535 2.21399,-0.5535 1.23723,0 2.21398,0.53722 0.97676,0.53721 1.54653,1.48142 0.56978,0.92791 0.56978,2.10002 0,1.17211 -0.56978,2.11631 -0.56977,0.9442 -1.54653,1.4977 -0.97675,0.53721 -2.21398,0.53721 z m 0,-2.26282 q 0.53721,0 0.9442,-0.22791 0.40698,-0.24419 0.61861,-0.66745 0.22791,-0.43954 0.22791,-0.99304 0,-0.5535 -0.22791,-0.96048 -0.22791,-0.42326 -0.63489,-0.65117 -0.39071,-0.24419 -0.92792,-0.24419 -0.52094,0 -0.92792,0.24419 -0.40698,0.22791 -0.63489,0.65117 -0.22791,0.42327 -0.22791,0.97676 0,0.53722 0.22791,0.97676 0.22791,0.42326 0.63489,0.66745 0.40698,0.22791 0.92792,0.22791 z"
           id="path1399"
           style="font-weight:bold;font-size:27.2945px;font-family:Outfit;-inkscape-font-specification:'Outfit Bold';fill:#455a64;stroke-width:1.0083;stroke-linecap:round;stroke-linejoin:round" />
        <path
           d="m 164.53923,150.63324 v -11.33039 h 2.55585 v 11.33039 z m -3.59772,-9.26292 v -2.23026 h 9.75129 v 2.23026 z"
           id="path1396"
           style="font-weight:bold;font-size:27.2945px;font-family:Outfit;-inkscape-font-specification:'Outfit Bold';fill:#455a64;stroke-width:1.0083;stroke-linecap:round;stroke-linejoin:round" />
        <path
           d="m 170.31837,150.63324 v -7.91174 h 2.49073 v 7.91174 z m 2.49073,-4.34657 -1.04187,-0.81397 q 0.30931,-1.38373 1.04187,-2.14887 0.73257,-0.76512 2.03491,-0.76512 0.56978,0 0.99304,0.17907 0.43954,0.1628 0.76513,0.52094 l -1.48142,1.87212 q -0.16279,-0.17908 -0.40698,-0.27675 -0.24419,-0.0977 -0.5535,-0.0977 -0.61861,0 -0.99303,0.39071 -0.35815,0.37442 -0.35815,1.13955 z"
           id="path1393"
           style="font-weight:bold;font-size:27.2945px;font-family:Outfit;-inkscape-font-specification:'Outfit Bold';fill:#455a64;stroke-width:1.0083;stroke-linecap:round;stroke-linejoin:round" />
        <path
           d="m 180.34635,150.79603 q -1.09071,0 -1.95351,-0.53722 -0.84652,-0.53721 -1.35118,-1.46513 -0.48838,-0.92792 -0.48838,-2.11631 0,-1.18839 0.48838,-2.1163 0.50466,-0.92793 1.35118,-1.46514 0.8628,-0.53722 1.95351,-0.53722 0.79769,0 1.43258,0.30931 0.65118,0.3093 1.05816,0.8628 0.40698,0.53721 0.45582,1.23723 v 3.41864 q -0.0489,0.70002 -0.45582,1.25351 -0.39071,0.53722 -1.04188,0.84652 -0.65117,0.30931 -1.44886,0.30931 z m 0.50466,-2.24654 q 0.79769,0 1.28607,-0.52094 0.48837,-0.53721 0.48837,-1.35118 0,-0.55349 -0.2279,-0.97676 -0.21164,-0.42326 -0.61862,-0.65117 -0.3907,-0.24419 -0.91164,-0.24419 -0.52094,0 -0.92792,0.24419 -0.3907,0.22791 -0.63489,0.65117 -0.22791,0.42327 -0.22791,0.97676 0,0.53722 0.22791,0.96048 0.22791,0.42326 0.63489,0.66745 0.40698,0.24419 0.91164,0.24419 z m 1.67677,2.08375 v -2.13259 l 0.37442,-1.92096 -0.37442,-1.92095 v -1.93724 h 2.44189 v 7.91174 z"
           id="path1390"
           style="font-weight:bold;font-size:27.2945px;font-family:Outfit;-inkscape-font-specification:'Outfit Bold';fill:#455a64;stroke-width:1.0083;stroke-linecap:round;stroke-linejoin:round" />
        <path
           d="m 191.79069,150.63324 -2.76748,-4.10238 2.7512,-3.80936 h 2.78376 l -3.32098,4.28146 0.0814,-1.0256 3.40237,4.65588 z m -5.06286,0 v -11.81877 h 2.49073 v 11.81877 z"
           id="path1387"
           style="font-weight:bold;font-size:27.2945px;font-family:Outfit;-inkscape-font-specification:'Outfit Bold';fill:#455a64;stroke-width:1.0083;stroke-linecap:round;stroke-linejoin:round" />
        <path
           d="m 198.0419,150.82859 q -0.70001,0 -1.38374,-0.17907 -0.66745,-0.17907 -1.2535,-0.50466 -0.56978,-0.34187 -0.97676,-0.78141 l 1.4163,-1.43257 q 0.3907,0.42326 0.92792,0.66745 0.53721,0.2279 1.1721,0.2279 0.43954,0 0.66745,-0.13023 0.24419,-0.13023 0.24419,-0.35814 0,-0.29303 -0.29302,-0.43954 -0.27675,-0.1628 -0.71629,-0.27675 -0.43954,-0.13023 -0.92792,-0.27675 -0.48838,-0.14651 -0.92792,-0.40698 -0.43954,-0.26047 -0.71629,-0.71629 -0.27675,-0.4721 -0.27675,-1.18839 0,-0.76513 0.3907,-1.31862 0.39071,-0.56978 1.107,-0.89536 0.71629,-0.32559 1.67676,-0.32559 1.00932,0 1.85585,0.35815 0.86279,0.34186 1.40001,1.02559 l -1.4163,1.43258 q -0.37442,-0.43954 -0.84652,-0.61861 -0.45582,-0.17908 -0.89536,-0.17908 -0.42326,0 -0.6349,0.13024 -0.21162,0.11395 -0.21162,0.34186 0,0.24419 0.27674,0.39071 0.27675,0.14651 0.71629,0.26046 0.43954,0.11396 0.92792,0.27675 0.48838,0.16279 0.92792,0.43954 0.43954,0.27675 0.71629,0.74885 0.27675,0.45582 0.27675,1.20467 0,1.15583 -0.87909,1.83956 -0.86279,0.68373 -2.34421,0.68373 z"
           id="path1384"
           style="font-weight:bold;font-size:27.2945px;font-family:Outfit;-inkscape-font-specification:'Outfit Bold';fill:#455a64;stroke-width:1.0083;stroke-linecap:round;stroke-linejoin:round" />
      </g>
      <path
         d="m 159.22385,61.279909 v -1.771725 h 4.21626 q 1.36804,0 2.10813,-0.695234 0.74009,-0.695234 0.74009,-1.883859 0,-1.121345 -0.74009,-1.861433 -0.71766,-0.740088 -2.0857,-0.740088 h -4.23869 v -1.839006 h 4.30597 q 1.48018,0 2.57909,0.5831 1.09892,0.560672 1.68202,1.547456 0.60553,0.986784 0.60553,2.265117 0,1.323187 -0.60553,2.309971 -0.5831,0.986783 -1.68202,1.547456 -1.09891,0.538245 -2.57909,0.538245 z m -1.41289,6.772925 v -15.56427 h 2.10813 v 15.56427 z m 8.97076,0 -5.65158,-6.974767 1.996,-0.695234 6.32438,7.670001 z"
         style="font-weight:500;font-size:22.4269px;font-family:Outfit;-inkscape-font-specification:Outfit;fill:#455a64;stroke-width:1.19197"
         id="path18974" />
      <path
         d="m 175.46093,68.277103 q -1.45775,0 -2.64638,-0.717661 -1.18862,-0.740088 -1.88386,-1.995994 -0.6728,-1.255907 -0.6728,-2.82579 0,-1.569883 0.6728,-2.825789 0.69524,-1.255907 1.86144,-1.995995 1.18862,-0.740087 2.6688,-0.740087 1.21105,0 2.15298,0.515818 0.96436,0.493392 1.54746,1.390468 0.5831,0.874649 0.65038,2.040848 v 3.207047 q -0.0673,1.143772 -0.65038,2.040848 -0.56068,0.897076 -1.52503,1.412895 -0.94193,0.493392 -2.17541,0.493392 z m 0.3364,-1.906287 q 1.5026,0 2.42211,-1.009211 0.9195,-1.031637 0.9195,-2.623947 0,-1.098918 -0.42611,-1.906287 -0.40369,-0.829795 -1.1662,-1.278333 -0.76252,-0.470965 -1.77173,-0.470965 -1.00921,0 -1.79415,0.470965 -0.76251,0.470965 -1.21105,1.30076 -0.42611,0.807369 -0.42611,1.861433 0,1.076491 0.42611,1.906287 0.44854,0.807368 1.23348,1.278333 0.78494,0.470965 1.79415,0.470965 z m 3.20705,1.682018 V 65.18219 l 0.38125,-2.60152 -0.38125,-2.579094 v -2.60152 h 2.04085 v 10.652778 z"
         style="font-weight:500;font-size:22.4269px;font-family:Outfit;-inkscape-font-specification:Outfit;fill:#455a64;stroke-width:1.19197"
         id="path18976" />
      <path
         d="m 191.5186,68.052834 v -6.212252 q 0,-1.211053 -0.76251,-1.995994 -0.76251,-0.784942 -1.97357,-0.784942 -0.80737,0 -1.43532,0.358831 -0.62795,0.35883 -0.98678,0.986783 -0.35883,0.627954 -0.35883,1.435322 l -0.8298,-0.470965 q 0,-1.211053 0.53825,-2.152982 0.53824,-0.94193 1.5026,-1.480176 0.96436,-0.560672 2.17541,-0.560672 1.21105,0 2.13055,0.605526 0.94193,0.605526 1.48018,1.59231 0.53825,0.964357 0.53825,2.063275 v 6.615936 z m -7.53543,0 V 57.400056 h 2.01842 v 10.652778 z"
         style="font-weight:500;font-size:22.4269px;font-family:Outfit;-inkscape-font-specification:Outfit;fill:#455a64;stroke-width:1.19197"
         id="path18978" />
      <path
         d="m 201.13975,68.277103 q -1.56988,0 -2.84822,-0.740088 -1.2559,-0.740088 -1.99599,-1.995994 -0.71766,-1.278334 -0.71766,-2.82579 0,-1.569883 0.71766,-2.825789 0.74009,-1.255907 1.99599,-1.973568 1.27834,-0.740087 2.84822,-0.740087 1.23348,0 2.28755,0.470965 1.05406,0.448538 1.81657,1.323187 l -1.34561,1.345614 q -0.49339,-0.5831 -1.21105,-0.874649 -0.69524,-0.313977 -1.54746,-0.313977 -1.00921,0 -1.79415,0.470965 -0.78494,0.448538 -1.23348,1.255906 -0.44854,0.807369 -0.44854,1.861433 0,1.054064 0.44854,1.861433 0.44854,0.807368 1.23348,1.278333 0.78494,0.470965 1.79415,0.470965 0.85222,0 1.54746,-0.29155 0.71766,-0.313976 1.23348,-0.897076 l 1.32318,1.345614 q -0.74008,0.852223 -1.81657,1.323188 -1.05407,0.470965 -2.28755,0.470965 z"
         style="font-weight:500;font-size:22.4269px;font-family:Outfit;-inkscape-font-specification:Outfit;fill:#455a64;stroke-width:1.19197"
         id="path18980" />
      <path
         d="m 214.77531,68.052834 v -6.212252 q 0,-1.211053 -0.76251,-1.995994 -0.76251,-0.784942 -1.97357,-0.784942 -0.80737,0 -1.43532,0.358831 -0.62795,0.35883 -0.98678,0.986783 -0.35883,0.627954 -0.35883,1.435322 l -0.8298,-0.470965 q 0,-1.211053 0.53825,-2.152982 0.53824,-0.94193 1.5026,-1.480176 0.96436,-0.560672 2.17541,-0.560672 1.21105,0 2.13055,0.538245 0.94193,0.538246 1.48018,1.502603 0.53825,0.964356 0.53825,2.220263 v 6.615936 z m -7.53543,0 V 52.040026 h 2.01842 v 16.012808 z"
         style="font-weight:500;font-size:22.4269px;font-family:Outfit;-inkscape-font-specification:Outfit;fill:#455a64;stroke-width:1.19197"
         id="path18982" />
    </g>
    <text
       xml:space="preserve"
       style="font-style:normal;font-variant:normal;font-weight:600;font-stretch:normal;font-size:24.1407px;font-family:Outfit;-inkscape-font-specification:'Outfit Semi-Bold';fill:#455a64;fill-opacity:1;stroke-width:1.28307"
       x="140.59059"
       y="56.253681"
       id="text6715"><tspan
         sodipodi:role="line"
         id="tspan6713"
         style="stroke-width:1.28307"
         x="140.59059"
         y="56.253681" /><tspan
         sodipodi:role="line"
         style="stroke-width:1.28307"
         x="140.59059"
         y="86.429558"
         id="tspan6719" /><tspan
         sodipodi:role="line"
         style="stroke-width:1.28307"
         x="140.59059"
         y="116.60543"
         id="tspan6723" /><tspan
         sodipodi:role="line"
         style="stroke-width:1.28307"
         x="140.59059"
         y="146.78131"
         id="tspan6725" /></text>
  </g>
</svg>
